# Blender 5.0.1
# www.blender.org
mtllib map.mtl
o 立方体.001
v 3.201603 -0.000000 -3.501492
v 3.201603 1.400000 -3.501492
v 3.201603 -0.000000 -5.501492
v 3.201603 1.400000 -5.501492
v 5.201603 -0.000000 -3.501492
v 5.201603 1.400000 -3.501492
v 5.201603 -0.000000 -5.501492
v 5.201603 1.400000 -5.501492
v 3.001603 -0.000000 2.998508
v 3.001603 4.000000 2.998508
v 3.001603 -0.000000 0.998508
v 3.001603 4.000000 0.998508
v 5.001603 -0.000000 2.998508
v 5.001603 4.000000 2.998508
v 5.001603 -0.000000 0.998508
v 5.001603 4.000000 0.998508
v 3.001603 -0.000000 5.498508
v 3.001603 2.000000 5.498508
v 3.001603 -0.000000 3.498508
v 3.001603 2.000000 3.498508
v 5.001603 -0.000000 5.498508
v 5.001603 2.000000 5.498508
v 5.001603 -0.000000 3.498508
v 5.001603 2.000000 3.498508
v 3.741603 -0.000000 0.698508
v 3.741603 2.000000 0.698508
v 3.741603 -0.000000 -1.701492
v 3.741603 2.000000 -1.701492
v 5.341603 -0.000000 0.698508
v 5.341603 2.000000 0.698508
v 5.341603 -0.000000 -1.701492
v 5.341603 2.000000 -1.701492
v 3.201603 -0.000000 -1.901492
v 3.201603 5.999999 -1.901492
v 3.201603 -0.000000 -3.501492
v 3.201603 5.999999 -3.501492
v 4.801603 -0.000000 -1.901492
v 4.801603 5.999999 -1.901492
v 4.801603 -0.000000 -3.501492
v 4.801603 5.999999 -3.501492
v -3.201603 -0.000000 3.501490
v -3.201603 1.400000 3.501490
v -3.201603 -0.000000 5.501490
v -3.201603 1.400000 5.501490
v -5.201603 -0.000000 3.501490
v -5.201603 1.400000 3.501490
v -5.201603 -0.000000 5.501490
v -5.201603 1.400000 5.501490
v -3.001603 -0.000000 -2.998510
v -3.001603 4.000000 -2.998510
v -3.001603 -0.000000 -0.998510
v -3.001603 4.000000 -0.998510
v -5.001603 -0.000000 -2.998510
v -5.001603 4.000000 -2.998510
v -5.001603 -0.000000 -0.998510
v -5.001603 4.000000 -0.998510
v -3.001604 -0.000000 -5.498510
v -3.001604 2.000000 -5.498510
v -3.001603 -0.000000 -3.498510
v -3.001603 2.000000 -3.498510
v -5.001603 -0.000000 -5.498510
v -5.001603 2.000000 -5.498510
v -5.001603 -0.000000 -3.498510
v -5.001603 2.000000 -3.498510
v -3.741603 -0.000000 -0.698510
v -3.741603 2.000000 -0.698510
v -3.741603 -0.000000 1.701490
v -3.741603 2.000000 1.701490
v -5.341603 -0.000000 -0.698510
v -5.341603 2.000000 -0.698510
v -5.341602 -0.000000 1.701490
v -5.341602 2.000000 1.701490
v -3.201603 -0.000000 1.901490
v -3.201603 5.999999 1.901490
v -3.201603 -0.000000 3.501490
v -3.201603 5.999999 3.501490
v -4.801603 -0.000000 1.901490
v -4.801603 5.999999 1.901490
v -4.801602 -0.000000 3.501490
v -4.801602 5.999999 3.501490
vn -1.0000 -0.0000 -0.0000
vn -0.0000 -0.0000 -1.0000
vn 1.0000 -0.0000 -0.0000
vn -0.0000 -0.0000 1.0000
vn -0.0000 -1.0000 -0.0000
vn -0.0000 1.0000 -0.0000
vt 0.625000 0.000000
vt 0.375000 0.250000
vt 0.375000 0.000000
vt 0.625000 0.250000
vt 0.375000 0.500000
vt 0.625000 0.500000
vt 0.375000 0.750000
vt 0.625000 0.750000
vt 0.375000 1.000000
vt 0.125000 0.750000
vt 0.125000 0.500000
vt 0.875000 0.500000
vt 0.875000 0.750000
vt 0.625000 1.000000
s 0
f 2/1/1 3/2/1 1/3/1
f 4/4/2 7/5/2 3/2/2
f 8/6/3 5/7/3 7/5/3
f 6/8/4 1/9/4 5/7/4
f 7/5/5 1/10/5 3/11/5
f 4/12/6 6/8/6 8/6/6
f 10/1/1 11/2/1 9/3/1
f 12/4/2 15/5/2 11/2/2
f 16/6/3 13/7/3 15/5/3
f 14/8/4 9/9/4 13/7/4
f 15/5/5 9/10/5 11/11/5
f 12/12/6 14/8/6 16/6/6
f 18/1/1 19/2/1 17/3/1
f 20/4/2 23/5/2 19/2/2
f 24/6/3 21/7/3 23/5/3
f 22/8/4 17/9/4 21/7/4
f 23/5/5 17/10/5 19/11/5
f 20/12/6 22/8/6 24/6/6
f 26/1/1 27/2/1 25/3/1
f 28/4/2 31/5/2 27/2/2
f 32/6/3 29/7/3 31/5/3
f 30/8/4 25/9/4 29/7/4
f 31/5/5 25/10/5 27/11/5
f 28/12/6 30/8/6 32/6/6
f 34/1/1 35/2/1 33/3/1
f 36/4/2 39/5/2 35/2/2
f 40/6/3 37/7/3 39/5/3
f 38/8/4 33/9/4 37/7/4
f 39/5/5 33/10/5 35/11/5
f 36/12/6 38/8/6 40/6/6
f 42/1/3 43/2/3 41/3/3
f 44/4/4 47/5/4 43/2/4
f 48/6/1 45/7/1 47/5/1
f 46/8/2 41/9/2 45/7/2
f 47/5/5 41/10/5 43/11/5
f 44/12/6 46/8/6 48/6/6
f 50/1/3 51/2/3 49/3/3
f 52/4/4 55/5/4 51/2/4
f 56/6/1 53/7/1 55/5/1
f 54/8/2 49/9/2 53/7/2
f 55/5/5 49/10/5 51/11/5
f 52/12/6 54/8/6 56/6/6
f 58/1/3 59/2/3 57/3/3
f 60/4/4 63/5/4 59/2/4
f 64/6/1 61/7/1 63/5/1
f 62/8/2 57/9/2 61/7/2
f 63/5/5 57/10/5 59/11/5
f 64/6/6 58/13/6 62/8/6
f 66/1/3 67/2/3 65/3/3
f 68/4/4 71/5/4 67/2/4
f 72/6/1 69/7/1 71/5/1
f 70/8/2 65/9/2 69/7/2
f 71/5/5 65/10/5 67/11/5
f 72/6/6 66/13/6 70/8/6
f 74/1/3 75/2/3 73/3/3
f 76/4/4 79/5/4 75/2/4
f 80/6/1 77/7/1 79/5/1
f 78/8/2 73/9/2 77/7/2
f 79/5/5 73/10/5 75/11/5
f 80/6/6 74/13/6 78/8/6
f 2/1/1 4/4/1 3/2/1
f 4/4/2 8/6/2 7/5/2
f 8/6/3 6/8/3 5/7/3
f 6/8/4 2/14/4 1/9/4
f 7/5/5 5/7/5 1/10/5
f 4/12/6 2/13/6 6/8/6
f 10/1/1 12/4/1 11/2/1
f 12/4/2 16/6/2 15/5/2
f 16/6/3 14/8/3 13/7/3
f 14/8/4 10/14/4 9/9/4
f 15/5/5 13/7/5 9/10/5
f 12/12/6 10/13/6 14/8/6
f 18/1/1 20/4/1 19/2/1
f 20/4/2 24/6/2 23/5/2
f 24/6/3 22/8/3 21/7/3
f 22/8/4 18/14/4 17/9/4
f 23/5/5 21/7/5 17/10/5
f 20/12/6 18/13/6 22/8/6
f 26/1/1 28/4/1 27/2/1
f 28/4/2 32/6/2 31/5/2
f 32/6/3 30/8/3 29/7/3
f 30/8/4 26/14/4 25/9/4
f 31/5/5 29/7/5 25/10/5
f 28/12/6 26/13/6 30/8/6
f 34/1/1 36/4/1 35/2/1
f 36/4/2 40/6/2 39/5/2
f 40/6/3 38/8/3 37/7/3
f 38/8/4 34/14/4 33/9/4
f 39/5/5 37/7/5 33/10/5
f 36/12/6 34/13/6 38/8/6
f 42/1/3 44/4/3 43/2/3
f 44/4/4 48/6/4 47/5/4
f 48/6/1 46/8/1 45/7/1
f 46/8/2 42/14/2 41/9/2
f 47/5/5 45/7/5 41/10/5
f 44/12/6 42/13/6 46/8/6
f 50/1/3 52/4/3 51/2/3
f 52/4/4 56/6/4 55/5/4
f 56/6/1 54/8/1 53/7/1
f 54/8/2 50/14/2 49/9/2
f 55/5/5 53/7/5 49/10/5
f 52/12/6 50/13/6 54/8/6
f 58/1/3 60/4/3 59/2/3
f 60/4/4 64/6/4 63/5/4
f 64/6/1 62/8/1 61/7/1
f 62/8/2 58/14/2 57/9/2
f 63/5/5 61/7/5 57/10/5
f 64/6/6 60/12/6 58/13/6
f 66/1/3 68/4/3 67/2/3
f 68/4/4 72/6/4 71/5/4
f 72/6/1 70/8/1 69/7/1
f 70/8/2 66/14/2 65/9/2
f 71/5/5 69/7/5 65/10/5
f 72/6/6 68/12/6 66/13/6
f 74/1/3 76/4/3 75/2/3
f 76/4/4 80/6/4 79/5/4
f 80/6/1 78/8/1 77/7/1
f 78/8/2 74/14/2 73/9/2
f 79/5/5 77/7/5 73/10/5
f 80/6/6 76/12/6 74/13/6
